<svg width="26" height="26" viewBox="0 0 26 26" fill="none" xmlns="http://www.w3.org/2000/svg">
<path d="M13.3706 2.6911C13.5078 2.71649 13.7363 2.79266 13.8785 2.86375C14.0359 2.945 16.5191 4.97625 20.0331 7.91141C26.2386 13.086 26.066 12.9286 25.9847 13.2638C25.9644 13.3298 25.6902 13.6954 25.3652 14.0763C24.8777 14.6552 24.7507 14.777 24.6085 14.8075C24.5121 14.8227 24.3851 14.8227 24.3292 14.8024C24.2734 14.7872 21.7038 12.6696 18.6265 10.1052C15.5441 7.53563 13.0152 5.43328 12.9999 5.43328C12.9847 5.43328 10.4558 7.53563 7.37338 10.1052C4.29604 12.6696 1.7265 14.7872 1.67064 14.8024C1.61478 14.8227 1.48783 14.8227 1.39135 14.8075C1.24916 14.777 1.12221 14.6552 0.634706 14.0763C0.309708 13.6954 0.0354881 13.3298 0.0151749 13.2638C-0.060997 12.9489 -5.91278e-05 12.888 1.87885 11.3239L3.68158 9.82078L3.70697 6.40828L3.73236 2.99578L3.87455 2.85867L4.01166 2.71649L5.6519 2.70125C6.7183 2.6911 7.35307 2.70125 7.46986 2.7368C7.81518 2.83836 7.81518 2.84852 7.83041 4.69695L7.84564 6.3575L9.91752 4.63094C12.1367 2.77742 12.2027 2.73172 12.8222 2.67586C12.9898 2.66063 13.2386 2.6657 13.3706 2.6911Z" fill="#4C61D8"/>
<path d="M17.6617 10.6742L22.293 14.493V18.4539C22.293 21.1809 22.2727 22.4859 22.2371 22.623C22.1609 22.9023 21.8156 23.2273 21.516 23.2984C21.3535 23.3441 20.3582 23.3594 18.1848 23.3594H15.082V20.2617V17.1641H13H10.918V20.2617V23.3594H7.81524C5.74844 23.3594 4.64141 23.3391 4.49922 23.3035C4.21484 23.2324 3.92031 22.9887 3.80352 22.7297C3.71211 22.5316 3.70703 22.3031 3.70703 18.5047V14.493L8.32305 10.6895C10.857 8.59727 12.9543 6.88086 12.9797 6.8707C13.0051 6.86055 15.1125 8.57188 17.6617 10.6742Z" fill="#4C61D8"/>
</svg>
